<svg xmlns="http://www.w3.org/2000/svg" viewBox="0 0 30.183 22.637">
  <path id="envelope" d="M27.353,64H2.83A2.83,2.83,0,0,0,0,66.83V83.808a2.83,2.83,0,0,0,2.83,2.83H27.353a2.83,2.83,0,0,0,2.83-2.83V66.83A2.83,2.83,0,0,0,27.353,64ZM2.83,65.886H27.353a.946.946,0,0,1,.943.943V69.27c-1.291,1.091-3.136,2.594-8.878,7.151-1,.79-2.959,2.694-4.327,2.67-1.368.024-3.337-1.881-4.327-2.67-5.742-4.557-7.587-6.06-8.878-7.151V66.83A.946.946,0,0,1,2.83,65.886ZM27.353,84.751H2.83a.946.946,0,0,1-.943-.943V71.723c1.344,1.1,3.466,2.806,7.7,6.172,1.209.967,3.343,3.095,5.5,3.083,2.146.018,4.262-2.093,5.5-3.083,4.239-3.366,6.361-5.07,7.7-6.172V83.808A.946.946,0,0,1,27.353,84.751Z" transform="translate(0 -64)"/>
</svg>
