<svg xmlns="http://www.w3.org/2000/svg" viewBox="0 0 26.41 26.41">
  <path id="linkedin" d="M24.524,32H1.881A1.9,1.9,0,0,0,0,33.9v22.6a1.9,1.9,0,0,0,1.881,1.9H24.524a1.9,1.9,0,0,0,1.886-1.9V33.9A1.9,1.9,0,0,0,24.524,32ZM7.982,54.637H4.068v-12.6h3.92v12.6ZM6.025,40.312a2.27,2.27,0,1,1,2.27-2.27A2.271,2.271,0,0,1,6.025,40.312Zm16.63,14.325H18.741V48.506c0-1.462-.029-3.343-2.034-3.343-2.04,0-2.352,1.592-2.352,3.236v6.237H10.44v-12.6H14.2v1.721h.053a4.123,4.123,0,0,1,3.708-2.034c3.962,0,4.7,2.612,4.7,6.007Z" transform="translate(0 -32)"/>
</svg>
