<svg xmlns="http://www.w3.org/2000/svg" viewBox="0 0 25.382 30.183">
  <path id="qq" d="M33.78,24.786c-.679.082-2.645-3.109-2.645-3.109a8.249,8.249,0,0,1-3.01,6c.993.306,3.233,1.13,2.7,2.029-.431.728-7.4.465-9.411.238-2.012.227-8.979.49-9.411-.238-.533-.9,1.7-1.722,2.7-2.029a8.25,8.25,0,0,1-3.01-6S9.729,24.868,9.05,24.786c-.317-.038-.732-1.748.551-5.878.6-1.947,1.3-3.565,2.367-6.236C11.787,5.781,14.634,0,21.415,0c6.7,0,9.618,5.667,9.448,12.672,1.068,2.666,1.763,4.295,2.367,6.236,1.283,4.13.868,5.839.551,5.878Z" transform="translate(-8.724)"/>
</svg>
