<svg xmlns="http://www.w3.org/2000/svg" viewBox="0 0 30.183 24.514">
  <path id="twitter" d="M27.08,54.191c.019.268.019.536.019.8,0,8.178-6.224,17.6-17.6,17.6A17.481,17.481,0,0,1,0,69.819a12.8,12.8,0,0,0,1.494.077,12.389,12.389,0,0,0,7.68-2.643,6.2,6.2,0,0,1-5.784-4.29,7.8,7.8,0,0,0,1.168.1,6.542,6.542,0,0,0,1.628-.211,6.187,6.187,0,0,1-4.96-6.071V56.7a6.23,6.23,0,0,0,2.8.785,6.2,6.2,0,0,1-1.915-8.274,17.583,17.583,0,0,0,12.755,6.473,6.983,6.983,0,0,1-.153-1.417,6.192,6.192,0,0,1,10.706-4.233,12.179,12.179,0,0,0,3.926-1.494,6.169,6.169,0,0,1-2.72,3.409,12.4,12.4,0,0,0,3.562-.958A13.3,13.3,0,0,1,27.08,54.191Z" transform="translate(0 -48.082)"/>
</svg>
